<mxfile host="Electron" modified="2025-01-14T03:00:36.078Z" agent="Mozilla/5.0 (Macintosh; Intel Mac OS X 10_15_7) AppleWebKit/537.36 (KHTML, like Gecko) draw.io/24.6.4 Chrome/124.0.6367.207 Electron/30.0.6 Safari/537.36" etag="0mHHlZpctXq3QdR6VUAE" version="24.6.4" type="device" pages="2">
  <diagram id="PUKBJcWJxRRMEurgFhLM" name="debug">
    <mxGraphModel dx="959" dy="732" grid="1" gridSize="10" guides="1" tooltips="1" connect="1" arrows="1" fold="1" page="1" pageScale="1" pageWidth="850" pageHeight="1100" math="0" shadow="0">
      <root>
        <mxCell id="0" />
        <mxCell id="1" parent="0" />
        <mxCell id="7AM6fKu7Su1GF4IJaQDg-7" value="" style="rounded=0;whiteSpace=wrap;html=1;" parent="1" vertex="1">
          <mxGeometry x="456.75" y="320" width="209" height="270" as="geometry" />
        </mxCell>
        <mxCell id="7AM6fKu7Su1GF4IJaQDg-6" value="" style="rounded=0;whiteSpace=wrap;html=1;" parent="1" vertex="1">
          <mxGeometry x="446.75" y="310" width="209" height="270" as="geometry" />
        </mxCell>
        <mxCell id="NKh4vI0Y_Na2G2xeZk5D-7" value="" style="rounded=0;whiteSpace=wrap;html=1;" parent="1" vertex="1">
          <mxGeometry x="436.75" y="300" width="209" height="270" as="geometry" />
        </mxCell>
        <mxCell id="7AM6fKu7Su1GF4IJaQDg-5" value="" style="rounded=1;whiteSpace=wrap;html=1;dashed=1;fillColor=#f5f5f5;fontColor=#333333;strokeColor=#666666;" parent="1" vertex="1">
          <mxGeometry x="444" y="345" width="196" height="155" as="geometry" />
        </mxCell>
        <mxCell id="NKh4vI0Y_Na2G2xeZk5D-1" value="" style="rounded=1;whiteSpace=wrap;html=1;dashed=1;fillColor=#f5f5f5;fontColor=#333333;strokeColor=#666666;" parent="1" vertex="1">
          <mxGeometry x="230" y="290" width="170" height="340" as="geometry" />
        </mxCell>
        <mxCell id="NKh4vI0Y_Na2G2xeZk5D-4" style="edgeStyle=orthogonalEdgeStyle;rounded=0;orthogonalLoop=1;jettySize=auto;html=1;exitX=0.5;exitY=1;exitDx=0;exitDy=0;entryX=0;entryY=0.5;entryDx=0;entryDy=0;endArrow=none;endFill=0;" parent="1" source="NKh4vI0Y_Na2G2xeZk5D-6" target="NKh4vI0Y_Na2G2xeZk5D-9" edge="1">
          <mxGeometry relative="1" as="geometry" />
        </mxCell>
        <mxCell id="NKh4vI0Y_Na2G2xeZk5D-5" value="SBA" style="edgeLabel;html=1;align=center;verticalAlign=middle;resizable=0;points=[];" parent="NKh4vI0Y_Na2G2xeZk5D-4" vertex="1" connectable="0">
          <mxGeometry x="-0.3826" y="1" relative="1" as="geometry">
            <mxPoint x="-1" y="-10" as="offset" />
          </mxGeometry>
        </mxCell>
        <mxCell id="NKh4vI0Y_Na2G2xeZk5D-6" value="Debug &lt;br&gt;Module" style="rounded=0;whiteSpace=wrap;html=1;" parent="1" vertex="1">
          <mxGeometry x="130" y="380" width="80" height="140" as="geometry" />
        </mxCell>
        <mxCell id="NKh4vI0Y_Na2G2xeZk5D-8" style="edgeStyle=orthogonalEdgeStyle;rounded=0;orthogonalLoop=1;jettySize=auto;html=1;exitX=1;exitY=0.5;exitDx=0;exitDy=0;entryX=0;entryY=0.5;entryDx=0;entryDy=0;endArrow=none;endFill=0;" parent="1" source="NKh4vI0Y_Na2G2xeZk5D-9" target="NKh4vI0Y_Na2G2xeZk5D-11" edge="1">
          <mxGeometry relative="1" as="geometry" />
        </mxCell>
        <mxCell id="NKh4vI0Y_Na2G2xeZk5D-9" value="IOPMP" style="rounded=0;whiteSpace=wrap;html=1;" parent="1" vertex="1">
          <mxGeometry x="250" y="540" width="120" height="60" as="geometry" />
        </mxCell>
        <mxCell id="NKh4vI0Y_Na2G2xeZk5D-10" style="edgeStyle=orthogonalEdgeStyle;rounded=0;orthogonalLoop=1;jettySize=auto;html=1;exitX=0.984;exitY=0.499;exitDx=0;exitDy=0;exitPerimeter=0;" parent="1" source="NKh4vI0Y_Na2G2xeZk5D-11" edge="1">
          <mxGeometry relative="1" as="geometry">
            <mxPoint x="720" y="630" as="targetPoint" />
            <mxPoint x="790" y="610" as="sourcePoint" />
          </mxGeometry>
        </mxCell>
        <mxCell id="NKh4vI0Y_Na2G2xeZk5D-11" value="System Bus" style="rounded=0;whiteSpace=wrap;html=1;" parent="1" vertex="1">
          <mxGeometry x="460" y="600" width="120" height="60" as="geometry" />
        </mxCell>
        <mxCell id="NKh4vI0Y_Na2G2xeZk5D-12" style="edgeStyle=orthogonalEdgeStyle;rounded=0;orthogonalLoop=1;jettySize=auto;html=1;exitX=0;exitY=0.5;exitDx=0;exitDy=0;endArrow=none;endFill=0;" parent="1" source="NKh4vI0Y_Na2G2xeZk5D-33" target="NKh4vI0Y_Na2G2xeZk5D-15" edge="1">
          <mxGeometry relative="1" as="geometry">
            <mxPoint x="280" y="430" as="targetPoint" />
            <Array as="points">
              <mxPoint x="355" y="330" />
            </Array>
            <mxPoint x="380.5" y="350" as="sourcePoint" />
          </mxGeometry>
        </mxCell>
        <mxCell id="NKh4vI0Y_Na2G2xeZk5D-15" value="" style="rounded=0;whiteSpace=wrap;html=1;" parent="1" vertex="1">
          <mxGeometry x="130" y="300" width="80" height="60" as="geometry" />
        </mxCell>
        <mxCell id="IQxdrFV2h1pyb3pg12M5-2" style="edgeStyle=orthogonalEdgeStyle;rounded=0;orthogonalLoop=1;jettySize=auto;html=1;endArrow=none;endFill=0;entryX=0;entryY=0.75;entryDx=0;entryDy=0;entryPerimeter=0;" parent="1" source="NKh4vI0Y_Na2G2xeZk5D-20" target="7G-3pPizm_k8JE4rLsKb-1" edge="1">
          <mxGeometry relative="1" as="geometry">
            <mxPoint x="460" y="478" as="targetPoint" />
            <Array as="points">
              <mxPoint x="450" y="528" />
              <mxPoint x="450" y="480" />
            </Array>
          </mxGeometry>
        </mxCell>
        <mxCell id="tQeNZEuqyOLJJMkqUlfo-5" value="Text" style="edgeLabel;html=1;align=center;verticalAlign=middle;resizable=0;points=[];" parent="IQxdrFV2h1pyb3pg12M5-2" vertex="1" connectable="0">
          <mxGeometry x="-0.6899" y="2" relative="1" as="geometry">
            <mxPoint as="offset" />
          </mxGeometry>
        </mxCell>
        <mxCell id="tQeNZEuqyOLJJMkqUlfo-7" value="halt" style="edgeLabel;html=1;align=center;verticalAlign=middle;resizable=0;points=[];" parent="IQxdrFV2h1pyb3pg12M5-2" vertex="1" connectable="0">
          <mxGeometry x="-0.6915" y="2" relative="1" as="geometry">
            <mxPoint as="offset" />
          </mxGeometry>
        </mxCell>
        <mxCell id="NKh4vI0Y_Na2G2xeZk5D-20" value="Trigger" style="rounded=0;whiteSpace=wrap;html=1;" parent="1" vertex="1">
          <mxGeometry x="488.25" y="508" width="97.5" height="40" as="geometry" />
        </mxCell>
        <mxCell id="NKh4vI0Y_Na2G2xeZk5D-30" value="Hart[i]" style="text;html=1;align=center;verticalAlign=middle;whiteSpace=wrap;rounded=0;" parent="1" vertex="1">
          <mxGeometry x="585.75" y="300" width="60" height="30" as="geometry" />
        </mxCell>
        <mxCell id="NKh4vI0Y_Na2G2xeZk5D-32" value="" style="group" parent="1" vertex="1" connectable="0">
          <mxGeometry x="322.5" y="381" width="57.5" height="90" as="geometry" />
        </mxCell>
        <mxCell id="NKh4vI0Y_Na2G2xeZk5D-33" value="" style="shape=trapezoid;perimeter=trapezoidPerimeter;whiteSpace=wrap;html=1;fixedSize=1;rotation=90;" parent="NKh4vI0Y_Na2G2xeZk5D-32" vertex="1">
          <mxGeometry x="-9.166666666666666" y="30" width="82.5" height="30" as="geometry" />
        </mxCell>
        <mxCell id="7MEihft8g5-maeVRlkDV-1" value="1" style="text;html=1;align=center;verticalAlign=middle;whiteSpace=wrap;rounded=0;" parent="NKh4vI0Y_Na2G2xeZk5D-32" vertex="1">
          <mxGeometry x="-4.5" y="15.670000000000016" width="60" height="30" as="geometry" />
        </mxCell>
        <mxCell id="7MEihft8g5-maeVRlkDV-2" value="0" style="text;html=1;align=center;verticalAlign=middle;whiteSpace=wrap;rounded=0;" parent="NKh4vI0Y_Na2G2xeZk5D-32" vertex="1">
          <mxGeometry x="-4.5" y="49" width="60" height="30" as="geometry" />
        </mxCell>
        <mxCell id="NKh4vI0Y_Na2G2xeZk5D-36" style="edgeStyle=orthogonalEdgeStyle;rounded=0;orthogonalLoop=1;jettySize=auto;html=1;exitX=1;exitY=0.25;exitDx=0;exitDy=0;entryX=0.341;entryY=0.981;entryDx=0;entryDy=0;entryPerimeter=0;endArrow=none;endFill=0;" parent="1" source="NKh4vI0Y_Na2G2xeZk5D-6" target="NKh4vI0Y_Na2G2xeZk5D-33" edge="1">
          <mxGeometry relative="1" as="geometry">
            <mxPoint x="355" y="365" as="sourcePoint" />
          </mxGeometry>
        </mxCell>
        <mxCell id="7MEihft8g5-maeVRlkDV-5" value="&lt;div&gt;hartreset&lt;/div&gt;&lt;div&gt;keepalive&lt;/div&gt;&lt;div&gt;quick access&lt;/div&gt;" style="edgeLabel;html=1;align=center;verticalAlign=middle;resizable=0;points=[];" parent="NKh4vI0Y_Na2G2xeZk5D-36" vertex="1" connectable="0">
          <mxGeometry x="-0.309" y="1" relative="1" as="geometry">
            <mxPoint x="25" as="offset" />
          </mxGeometry>
        </mxCell>
        <mxCell id="NKh4vI0Y_Na2G2xeZk5D-38" value="mdbgen[i]" style="rounded=0;whiteSpace=wrap;html=1;" parent="1" vertex="1">
          <mxGeometry x="130" y="320" width="80" height="20" as="geometry" />
        </mxCell>
        <mxCell id="NKh4vI0Y_Na2G2xeZk5D-39" value="" style="rounded=0;whiteSpace=wrap;html=1;" parent="1" vertex="1">
          <mxGeometry x="130" y="300" width="80" height="20" as="geometry" />
        </mxCell>
        <mxCell id="NKh4vI0Y_Na2G2xeZk5D-40" value="" style="rounded=0;whiteSpace=wrap;html=1;" parent="1" vertex="1">
          <mxGeometry x="130" y="340" width="80" height="20" as="geometry" />
        </mxCell>
        <mxCell id="7MEihft8g5-maeVRlkDV-4" style="edgeStyle=orthogonalEdgeStyle;rounded=0;orthogonalLoop=1;jettySize=auto;html=1;entryX=0.341;entryY=0.981;entryDx=0;entryDy=0;entryPerimeter=0;endArrow=none;endFill=0;" parent="1" edge="1">
          <mxGeometry relative="1" as="geometry">
            <mxPoint x="310" y="444.5" as="sourcePoint" />
            <mxPoint x="340" y="444.5" as="targetPoint" />
          </mxGeometry>
        </mxCell>
        <mxCell id="kFpus0cYX18OSGnglrjY-1" value="" style="group" parent="1" vertex="1" connectable="0">
          <mxGeometry x="552" y="358" width="49.57000000000003" height="80" as="geometry" />
        </mxCell>
        <mxCell id="kFpus0cYX18OSGnglrjY-2" value="" style="shape=trapezoid;perimeter=trapezoidPerimeter;whiteSpace=wrap;html=1;fixedSize=1;rotation=90;" parent="kFpus0cYX18OSGnglrjY-1" vertex="1">
          <mxGeometry x="-7.5724637681159415" y="26.666666666666664" width="68.15217391304348" height="26.666666666666664" as="geometry" />
        </mxCell>
        <mxCell id="kFpus0cYX18OSGnglrjY-4" value="&lt;font style=&quot;font-size: 10px;&quot;&gt;!M&lt;/font&gt;" style="text;html=1;align=center;verticalAlign=middle;whiteSpace=wrap;rounded=0;" parent="kFpus0cYX18OSGnglrjY-1" vertex="1">
          <mxGeometry x="-4.065217391304259" y="11.998888888888871" width="49.56521739130435" height="26.666666666666664" as="geometry" />
        </mxCell>
        <mxCell id="kFpus0cYX18OSGnglrjY-3" value="&lt;font style=&quot;font-size: 10px;&quot;&gt;M&lt;/font&gt;" style="text;html=1;align=center;verticalAlign=middle;whiteSpace=wrap;rounded=0;" parent="kFpus0cYX18OSGnglrjY-1" vertex="1">
          <mxGeometry x="-2.9952173913043225" y="42.0022222222222" width="49.56521739130435" height="26.666666666666664" as="geometry" />
        </mxCell>
        <mxCell id="kFpus0cYX18OSGnglrjY-5" style="edgeStyle=orthogonalEdgeStyle;rounded=0;orthogonalLoop=1;jettySize=auto;html=1;endArrow=none;endFill=0;entryX=0;entryY=0.75;entryDx=0;entryDy=0;entryPerimeter=0;" parent="1" source="NKh4vI0Y_Na2G2xeZk5D-6" target="7G-3pPizm_k8JE4rLsKb-1" edge="1">
          <mxGeometry relative="1" as="geometry">
            <mxPoint x="210" y="480" as="sourcePoint" />
            <mxPoint x="480" y="484" as="targetPoint" />
            <Array as="points">
              <mxPoint x="495" y="480" />
            </Array>
          </mxGeometry>
        </mxCell>
        <mxCell id="tQeNZEuqyOLJJMkqUlfo-8" value="halt&lt;div&gt;abstract commands&lt;/div&gt;" style="edgeLabel;html=1;align=center;verticalAlign=middle;resizable=0;points=[];" parent="kFpus0cYX18OSGnglrjY-5" vertex="1" connectable="0">
          <mxGeometry x="-0.5439" relative="1" as="geometry">
            <mxPoint x="10" as="offset" />
          </mxGeometry>
        </mxCell>
        <mxCell id="IQxdrFV2h1pyb3pg12M5-7" style="edgeStyle=orthogonalEdgeStyle;rounded=0;orthogonalLoop=1;jettySize=auto;html=1;exitX=1;exitY=0.5;exitDx=0;exitDy=0;exitPerimeter=0;entryX=0.25;entryY=1;entryDx=0;entryDy=0;endArrow=none;endFill=0;" parent="1" source="a8vGjEUai5okdlRPAYKu-1" target="kFpus0cYX18OSGnglrjY-2" edge="1">
          <mxGeometry relative="1" as="geometry">
            <Array as="points">
              <mxPoint x="565" y="382" />
            </Array>
          </mxGeometry>
        </mxCell>
        <mxCell id="a8vGjEUai5okdlRPAYKu-1" value="" style="verticalLabelPosition=bottom;shadow=0;dashed=0;align=center;html=1;verticalAlign=top;shape=mxgraph.electrical.logic_gates.logic_gate;operation=or;" parent="1" vertex="1">
          <mxGeometry x="503.25" y="367" width="50" height="30" as="geometry" />
        </mxCell>
        <mxCell id="IQxdrFV2h1pyb3pg12M5-5" style="edgeStyle=orthogonalEdgeStyle;rounded=0;orthogonalLoop=1;jettySize=auto;html=1;exitX=0;exitY=0.25;exitDx=0;exitDy=0;exitPerimeter=0;endArrow=none;endFill=0;entryX=0.5;entryY=0;entryDx=0;entryDy=0;" parent="1" source="7G-3pPizm_k8JE4rLsKb-1" target="kFpus0cYX18OSGnglrjY-2" edge="1">
          <mxGeometry relative="1" as="geometry">
            <mxPoint x="750" y="328" as="targetPoint" />
            <Array as="points">
              <mxPoint x="470" y="459" />
              <mxPoint x="470" y="438" />
              <mxPoint x="630" y="438" />
              <mxPoint x="630" y="398" />
            </Array>
          </mxGeometry>
        </mxCell>
        <mxCell id="Bd2Q2_3OKsD3nuSv2CWh-1" value="debug allowed" style="edgeLabel;html=1;align=center;verticalAlign=middle;resizable=0;points=[];" parent="IQxdrFV2h1pyb3pg12M5-5" vertex="1" connectable="0">
          <mxGeometry x="-0.1898" y="1" relative="1" as="geometry">
            <mxPoint as="offset" />
          </mxGeometry>
        </mxCell>
        <mxCell id="nRTV35QwhriRPndGCGe1-4" style="edgeStyle=orthogonalEdgeStyle;rounded=0;orthogonalLoop=1;jettySize=auto;html=1;endArrow=classic;endFill=1;" parent="1" source="7G-3pPizm_k8JE4rLsKb-1" edge="1">
          <mxGeometry relative="1" as="geometry">
            <mxPoint x="630" y="468" as="targetPoint" />
            <Array as="points">
              <mxPoint x="630" y="468" />
            </Array>
          </mxGeometry>
        </mxCell>
        <mxCell id="nRTV35QwhriRPndGCGe1-5" value="Debug Mode/&lt;div&gt;abstract&amp;nbsp;&lt;/div&gt;&lt;div&gt;commands&lt;/div&gt;" style="edgeLabel;html=1;align=center;verticalAlign=middle;resizable=0;points=[];" parent="nRTV35QwhriRPndGCGe1-4" vertex="1" connectable="0">
          <mxGeometry x="-0.3952" relative="1" as="geometry">
            <mxPoint x="16" as="offset" />
          </mxGeometry>
        </mxCell>
        <mxCell id="7G-3pPizm_k8JE4rLsKb-1" value="" style="shape=or;whiteSpace=wrap;html=1;" parent="1" vertex="1">
          <mxGeometry x="495" y="449" width="30" height="40" as="geometry" />
        </mxCell>
        <mxCell id="7AM6fKu7Su1GF4IJaQDg-1" style="edgeStyle=orthogonalEdgeStyle;rounded=0;orthogonalLoop=1;jettySize=auto;html=1;exitX=1;exitY=0.5;exitDx=0;exitDy=0;endArrow=none;endFill=0;entryX=0.115;entryY=0.75;entryDx=0;entryDy=0;entryPerimeter=0;" parent="1" target="a8vGjEUai5okdlRPAYKu-1" edge="1">
          <mxGeometry relative="1" as="geometry">
            <mxPoint x="210" y="330" as="sourcePoint" />
            <mxPoint x="503.25" y="389.5" as="targetPoint" />
            <Array as="points">
              <mxPoint x="420" y="330" />
              <mxPoint x="420" y="390" />
            </Array>
          </mxGeometry>
        </mxCell>
        <mxCell id="7AM6fKu7Su1GF4IJaQDg-2" value="sdedbgalw" style="text;html=1;align=center;verticalAlign=middle;whiteSpace=wrap;rounded=0;" parent="1" vertex="1">
          <mxGeometry x="444" y="358" width="60" height="30" as="geometry" />
        </mxCell>
        <mxCell id="7AM6fKu7Su1GF4IJaQDg-3" style="edgeStyle=orthogonalEdgeStyle;rounded=0;orthogonalLoop=1;jettySize=auto;html=1;exitX=0.75;exitY=1;exitDx=0;exitDy=0;entryX=1;entryY=0.5;entryDx=0;entryDy=0;endArrow=none;endFill=0;" parent="1" source="kFpus0cYX18OSGnglrjY-2" target="NKh4vI0Y_Na2G2xeZk5D-38" edge="1">
          <mxGeometry relative="1" as="geometry">
            <Array as="points">
              <mxPoint x="420" y="415" />
              <mxPoint x="420" y="330" />
            </Array>
          </mxGeometry>
        </mxCell>
        <mxCell id="7AM6fKu7Su1GF4IJaQDg-4" value="privilege" style="text;html=1;align=center;verticalAlign=middle;whiteSpace=wrap;rounded=0;" parent="1" vertex="1">
          <mxGeometry x="495" y="315" width="60" height="30" as="geometry" />
        </mxCell>
        <mxCell id="nRTV35QwhriRPndGCGe1-1" style="edgeStyle=orthogonalEdgeStyle;rounded=0;orthogonalLoop=1;jettySize=auto;html=1;exitX=0;exitY=0.5;exitDx=0;exitDy=0;endArrow=none;endFill=0;entryX=1;entryY=0.5;entryDx=0;entryDy=0;" parent="1" source="kFpus0cYX18OSGnglrjY-2" target="7AM6fKu7Su1GF4IJaQDg-4" edge="1">
          <mxGeometry relative="1" as="geometry">
            <mxPoint x="578.2121212121212" y="357.9999999999999" as="targetPoint" />
            <Array as="points">
              <mxPoint x="579" y="330" />
            </Array>
          </mxGeometry>
        </mxCell>
        <mxCell id="VWgEmrhR4MEHPYSaLl97-3" style="edgeStyle=orthogonalEdgeStyle;rounded=0;orthogonalLoop=1;jettySize=auto;html=1;exitX=0.5;exitY=0;exitDx=0;exitDy=0;entryX=-0.012;entryY=0.467;entryDx=0;entryDy=0;entryPerimeter=0;" parent="1" source="NKh4vI0Y_Na2G2xeZk5D-33" target="NKh4vI0Y_Na2G2xeZk5D-7" edge="1">
          <mxGeometry relative="1" as="geometry" />
        </mxCell>
        <mxCell id="tQeNZEuqyOLJJMkqUlfo-1" value="" style="rounded=1;whiteSpace=wrap;html=1;fillColor=#f5f5f5;fontColor=#333333;strokeColor=#666666;dashed=1;" parent="1" vertex="1">
          <mxGeometry x="130" y="240" width="80" height="20" as="geometry" />
        </mxCell>
        <mxCell id="tQeNZEuqyOLJJMkqUlfo-4" value="Debug security enabled with &lt;b&gt;nsecdbg&lt;/b&gt; = 0&amp;nbsp;" style="text;html=1;align=left;verticalAlign=middle;whiteSpace=wrap;rounded=0;" parent="1" vertex="1">
          <mxGeometry x="220" y="235" width="240" height="30" as="geometry" />
        </mxCell>
      </root>
    </mxGraphModel>
  </diagram>
  <diagram id="CuVw0JV7Hk7r3yrmPoAc" name="trace">
    <mxGraphModel dx="959" dy="732" grid="1" gridSize="10" guides="1" tooltips="1" connect="1" arrows="1" fold="1" page="1" pageScale="1" pageWidth="850" pageHeight="1100" math="0" shadow="0">
      <root>
        <mxCell id="0" />
        <mxCell id="1" parent="0" />
        <mxCell id="XOOPOzd-EA1kAR8ASHPs-5" value="" style="rounded=0;whiteSpace=wrap;html=1;" parent="1" vertex="1">
          <mxGeometry x="250" y="280" width="190" height="235" as="geometry" />
        </mxCell>
        <mxCell id="XOOPOzd-EA1kAR8ASHPs-1" value="" style="rounded=1;whiteSpace=wrap;html=1;dashed=1;fillColor=#f5f5f5;fontColor=#333333;strokeColor=#666666;" parent="1" vertex="1">
          <mxGeometry x="259" y="309" width="173" height="121" as="geometry" />
        </mxCell>
        <mxCell id="XOOPOzd-EA1kAR8ASHPs-4" value="Trace encoder[i]" style="rounded=0;whiteSpace=wrap;html=1;" parent="1" vertex="1">
          <mxGeometry x="130" y="380" width="80" height="130" as="geometry" />
        </mxCell>
        <mxCell id="XOOPOzd-EA1kAR8ASHPs-6" style="edgeStyle=orthogonalEdgeStyle;rounded=0;orthogonalLoop=1;jettySize=auto;html=1;exitX=0;exitY=0.75;exitDx=0;exitDy=0;exitPerimeter=0;endArrow=none;endFill=0;" parent="1" source="XOOPOzd-EA1kAR8ASHPs-7" target="XOOPOzd-EA1kAR8ASHPs-9" edge="1">
          <mxGeometry relative="1" as="geometry">
            <mxPoint x="280" y="430" as="targetPoint" />
            <Array as="points">
              <mxPoint x="230" y="356" />
              <mxPoint x="230" y="330" />
            </Array>
          </mxGeometry>
        </mxCell>
        <mxCell id="ccdIS5b9glSX3GIqIRPP-2" style="edgeStyle=orthogonalEdgeStyle;rounded=0;orthogonalLoop=1;jettySize=auto;html=1;exitX=0;exitY=0.25;exitDx=0;exitDy=0;exitPerimeter=0;entryX=0.5;entryY=1;entryDx=0;entryDy=0;endArrow=none;endFill=0;" parent="1" source="XOOPOzd-EA1kAR8ASHPs-7" target="XOOPOzd-EA1kAR8ASHPs-34" edge="1">
          <mxGeometry relative="1" as="geometry" />
        </mxCell>
        <mxCell id="XOOPOzd-EA1kAR8ASHPs-7" value="" style="verticalLabelPosition=bottom;shadow=0;dashed=0;align=center;html=1;verticalAlign=top;shape=mxgraph.electrical.logic_gates.logic_gate;operation=or;" parent="1" vertex="1">
          <mxGeometry x="296.08" y="334" width="50" height="30" as="geometry" />
        </mxCell>
        <mxCell id="XOOPOzd-EA1kAR8ASHPs-9" value="" style="rounded=0;whiteSpace=wrap;html=1;" parent="1" vertex="1">
          <mxGeometry x="130" y="300" width="80" height="60" as="geometry" />
        </mxCell>
        <mxCell id="XOOPOzd-EA1kAR8ASHPs-12" value="Hart[i]" style="text;html=1;align=center;verticalAlign=middle;whiteSpace=wrap;rounded=0;" parent="1" vertex="1">
          <mxGeometry x="252" y="279" width="60" height="30" as="geometry" />
        </mxCell>
        <mxCell id="XOOPOzd-EA1kAR8ASHPs-14" value="" style="group" parent="1" vertex="1" connectable="0">
          <mxGeometry x="339.91" y="334" width="57.5" height="90" as="geometry" />
        </mxCell>
        <mxCell id="XOOPOzd-EA1kAR8ASHPs-15" value="" style="shape=trapezoid;perimeter=trapezoidPerimeter;whiteSpace=wrap;html=1;fixedSize=1;rotation=90;" parent="XOOPOzd-EA1kAR8ASHPs-14" vertex="1">
          <mxGeometry x="-9.086666666666666" y="14" width="82.5" height="30" as="geometry" />
        </mxCell>
        <mxCell id="XOOPOzd-EA1kAR8ASHPs-16" value="&lt;font style=&quot;font-size: 10px;&quot;&gt;!M&lt;/font&gt;" style="text;html=1;align=center;verticalAlign=middle;whiteSpace=wrap;rounded=0;" parent="XOOPOzd-EA1kAR8ASHPs-14" vertex="1">
          <mxGeometry x="-2.5" y="-1" width="60" height="30" as="geometry" />
        </mxCell>
        <mxCell id="XOOPOzd-EA1kAR8ASHPs-17" value="&lt;font style=&quot;font-size: 10px;&quot;&gt;M&lt;/font&gt;" style="text;html=1;align=center;verticalAlign=middle;whiteSpace=wrap;rounded=0;" parent="XOOPOzd-EA1kAR8ASHPs-14" vertex="1">
          <mxGeometry x="-2.5" y="32" width="60" height="30" as="geometry" />
        </mxCell>
        <mxCell id="XOOPOzd-EA1kAR8ASHPs-18" style="edgeStyle=orthogonalEdgeStyle;rounded=0;orthogonalLoop=1;jettySize=auto;html=1;exitX=1;exitY=0.5;exitDx=0;exitDy=0;exitPerimeter=0;entryX=0.341;entryY=0.981;entryDx=0;entryDy=0;entryPerimeter=0;endArrow=none;endFill=0;" parent="1" source="XOOPOzd-EA1kAR8ASHPs-7" target="XOOPOzd-EA1kAR8ASHPs-15" edge="1">
          <mxGeometry relative="1" as="geometry" />
        </mxCell>
        <mxCell id="XOOPOzd-EA1kAR8ASHPs-19" style="edgeStyle=orthogonalEdgeStyle;rounded=0;orthogonalLoop=1;jettySize=auto;html=1;entryX=0;entryY=0.75;entryDx=0;entryDy=0;entryPerimeter=0;endArrow=none;endFill=0;exitX=0;exitY=0.75;exitDx=0;exitDy=0;exitPerimeter=0;" parent="1" source="XOOPOzd-EA1kAR8ASHPs-7" target="XOOPOzd-EA1kAR8ASHPs-7" edge="1">
          <mxGeometry relative="1" as="geometry">
            <mxPoint x="302" y="372.5" as="targetPoint" />
            <mxPoint x="370" y="400" as="sourcePoint" />
            <Array as="points" />
          </mxGeometry>
        </mxCell>
        <mxCell id="XOOPOzd-EA1kAR8ASHPs-20" value="mtrcen[i]" style="rounded=0;whiteSpace=wrap;html=1;" parent="1" vertex="1">
          <mxGeometry x="130" y="320" width="80" height="20" as="geometry" />
        </mxCell>
        <mxCell id="XOOPOzd-EA1kAR8ASHPs-21" value="" style="rounded=0;whiteSpace=wrap;html=1;" parent="1" vertex="1">
          <mxGeometry x="130" y="300" width="80" height="20" as="geometry" />
        </mxCell>
        <mxCell id="XOOPOzd-EA1kAR8ASHPs-22" value="" style="rounded=0;whiteSpace=wrap;html=1;" parent="1" vertex="1">
          <mxGeometry x="130" y="340" width="80" height="20" as="geometry" />
        </mxCell>
        <mxCell id="XOOPOzd-EA1kAR8ASHPs-23" value="" style="group" parent="1" vertex="1" connectable="0">
          <mxGeometry x="260" y="461" width="107.5" height="49" as="geometry" />
        </mxCell>
        <mxCell id="XOOPOzd-EA1kAR8ASHPs-24" value="" style="group" parent="XOOPOzd-EA1kAR8ASHPs-23" vertex="1" connectable="0">
          <mxGeometry x="-2" y="-19" width="107.5" height="60" as="geometry" />
        </mxCell>
        <mxCell id="XOOPOzd-EA1kAR8ASHPs-25" value="" style="rounded=0;whiteSpace=wrap;html=1;" parent="XOOPOzd-EA1kAR8ASHPs-24" vertex="1">
          <mxGeometry x="39.5" width="95" height="60" as="geometry" />
        </mxCell>
        <mxCell id="XOOPOzd-EA1kAR8ASHPs-27" value="sec_inhibit" style="rounded=0;whiteSpace=wrap;html=1;" parent="XOOPOzd-EA1kAR8ASHPs-24" vertex="1">
          <mxGeometry x="40" y="26" width="80" height="19" as="geometry" />
        </mxCell>
        <mxCell id="XOOPOzd-EA1kAR8ASHPs-26" value="Trace egress" style="text;html=1;align=center;verticalAlign=middle;whiteSpace=wrap;rounded=0;" parent="XOOPOzd-EA1kAR8ASHPs-24" vertex="1">
          <mxGeometry x="27" y="-4" width="100" height="30" as="geometry" />
        </mxCell>
        <mxCell id="XOOPOzd-EA1kAR8ASHPs-30" value="" style="endArrow=classic;html=1;rounded=0;exitX=0;exitY=0.25;exitDx=0;exitDy=0;entryX=1.003;entryY=0.713;entryDx=0;entryDy=0;entryPerimeter=0;" parent="1" source="XOOPOzd-EA1kAR8ASHPs-27" target="XOOPOzd-EA1kAR8ASHPs-4" edge="1">
          <mxGeometry width="50" height="50" relative="1" as="geometry">
            <mxPoint x="370" y="430" as="sourcePoint" />
            <mxPoint x="210" y="473" as="targetPoint" />
          </mxGeometry>
        </mxCell>
        <mxCell id="XOOPOzd-EA1kAR8ASHPs-31" style="edgeStyle=orthogonalEdgeStyle;rounded=0;orthogonalLoop=1;jettySize=auto;html=1;exitX=0.5;exitY=0;exitDx=0;exitDy=0;endArrow=none;endFill=0;entryX=0.5;entryY=0;entryDx=0;entryDy=0;" parent="1" source="XOOPOzd-EA1kAR8ASHPs-15" target="XOOPOzd-EA1kAR8ASHPs-25" edge="1">
          <mxGeometry relative="1" as="geometry">
            <Array as="points">
              <mxPoint x="420" y="363" />
              <mxPoint x="420" y="420" />
              <mxPoint x="346" y="420" />
            </Array>
          </mxGeometry>
        </mxCell>
        <mxCell id="XOOPOzd-EA1kAR8ASHPs-32" value="trace allowed" style="edgeLabel;html=1;align=center;verticalAlign=middle;resizable=0;points=[];" parent="XOOPOzd-EA1kAR8ASHPs-31" vertex="1" connectable="0">
          <mxGeometry x="0.3803" relative="1" as="geometry">
            <mxPoint x="2" as="offset" />
          </mxGeometry>
        </mxCell>
        <mxCell id="XOOPOzd-EA1kAR8ASHPs-33" value="" style="edgeStyle=orthogonalEdgeStyle;rounded=0;orthogonalLoop=1;jettySize=auto;html=1;endArrow=none;endFill=0;exitX=0.764;exitY=1.001;exitDx=0;exitDy=0;exitPerimeter=0;" parent="1" source="XOOPOzd-EA1kAR8ASHPs-15" edge="1">
          <mxGeometry relative="1" as="geometry">
            <mxPoint x="230" y="350" as="targetPoint" />
            <mxPoint x="362" y="385" as="sourcePoint" />
            <Array as="points">
              <mxPoint x="230" y="385" />
              <mxPoint x="230" y="350" />
            </Array>
          </mxGeometry>
        </mxCell>
        <mxCell id="XOOPOzd-EA1kAR8ASHPs-34" value="sdetrcalw" style="text;html=1;align=center;verticalAlign=middle;whiteSpace=wrap;rounded=0;" parent="1" vertex="1">
          <mxGeometry x="266" y="308" width="60" height="30" as="geometry" />
        </mxCell>
        <mxCell id="ccdIS5b9glSX3GIqIRPP-3" value="privilege" style="text;html=1;align=center;verticalAlign=middle;whiteSpace=wrap;rounded=0;" parent="1" vertex="1">
          <mxGeometry x="339.91" y="284" width="60" height="30" as="geometry" />
        </mxCell>
        <mxCell id="ccdIS5b9glSX3GIqIRPP-4" style="edgeStyle=orthogonalEdgeStyle;rounded=0;orthogonalLoop=1;jettySize=auto;html=1;exitX=0;exitY=0.5;exitDx=0;exitDy=0;endArrow=none;endFill=0;" parent="1" source="XOOPOzd-EA1kAR8ASHPs-15" target="ccdIS5b9glSX3GIqIRPP-3" edge="1">
          <mxGeometry relative="1" as="geometry">
            <mxPoint x="372.20000000000005" y="250" as="targetPoint" />
            <Array as="points">
              <mxPoint x="380" y="310" />
              <mxPoint x="380" y="310" />
            </Array>
          </mxGeometry>
        </mxCell>
        <mxCell id="xGlLH2HLdgQkL_q0wLqX-1" value="" style="rounded=1;whiteSpace=wrap;html=1;fillColor=#f5f5f5;fontColor=#333333;strokeColor=#666666;dashed=1;" parent="1" vertex="1">
          <mxGeometry x="130" y="240" width="80" height="20" as="geometry" />
        </mxCell>
        <mxCell id="xGlLH2HLdgQkL_q0wLqX-2" value="Debug security enabled with &lt;b&gt;nsecdbg&lt;/b&gt; = 0&amp;nbsp;" style="text;html=1;align=left;verticalAlign=middle;whiteSpace=wrap;rounded=0;" parent="1" vertex="1">
          <mxGeometry x="220" y="235" width="240" height="30" as="geometry" />
        </mxCell>
      </root>
    </mxGraphModel>
  </diagram>
</mxfile>
